/* XPM */
static char *result[] = {
/* columns rows colors chars-per-pixel */
"14 16 14 1 ",
"  c #141A1A",
". c #141B1B",
"X c #1B2628",
"o c #1D282A",
"O c #1E2B2D",
"+ c #223033",
"@ c #233336",
"# c #689EB0",
"$ c #6AA0B3",
"% c #6FA8BC",
"& c #70AABF",
"* c #79B8CE",
"= c #7AB8CF",
"- c None",
/* pixels */
"--------------",
"-----****-----",
"-----****-----",
"-----.O**-----",
"-----****-----",
"-----****-----",
"-----.O**-----",
"------***=----",
"-----******---",
"----**%.+***--",
"----*&.--@**--",
"----**----**--",
"----***--***--",
"----X*****#.--",
"-----o***$ ---",
"------....----"
};
