/* XPM */
static char *result[] = {
/* columns rows colors chars-per-pixel */
"16 16 5 1 ",
"  c #46402E",
". c #5F7160",
"X c #8D977F",
"o c #B8DCE5",
"O c #F2EAF1",
/* pixels */
"X.X... ..... XXX",
"X ....     . .XX",
"X.     XX.. ...X",
".. XXX XX... ..X",
". XXXX. ....  ..",
". XXX.. ... X. .",
".  ...     ... .",
".      XX.. .. .",
". XX. XXX..    .",
". XX. XX...  . .",
". ... ..... X. .",
".      ...  .. .",
".   ..         .",
"   ....  ...    ",
"    ..  .....   ",
"OOOOoooooooooOOO"
};
